<?xml version="1.0" encoding="iso-8859-1"?>
<!-- Generator: Adobe Illustrator 19.0.0, SVG Export Plug-In . SVG Version: 6.00 Build 0)  -->
<svg version="1.1" id="Capa_1" xmlns="http://www.w3.org/2000/svg" xmlns:xlink="http://www.w3.org/1999/xlink" x="0px" y="0px"
	 viewBox="0 0 512 512" style="enable-background:new 0 0 512 512;" xml:space="preserve">
<g>
	<g>
		<g>
			<path d="M480,490.667h-32v-480C448,4.779,443.221,0,437.333,0H74.667C68.779,0,64,4.779,64,10.667v480H32
				c-5.888,0-10.667,4.779-10.667,10.667C21.333,507.221,26.112,512,32,512h448c5.888,0,10.667-4.779,10.667-10.667
				C490.667,495.445,485.888,490.667,480,490.667z M298.667,490.667h-85.333v-85.333h85.333V490.667z M426.667,490.667H320v-96
				c0-5.888-4.779-10.667-10.667-10.667H202.667c-5.888,0-10.667,4.779-10.667,10.667v96H85.333V21.333h341.333V490.667z"/>
			<path d="M117.333,149.333h64c5.888,0,10.667-4.779,10.667-10.667v-64C192,68.779,187.221,64,181.333,64h-64
				c-5.888,0-10.667,4.779-10.667,10.667v64C106.667,144.555,111.445,149.333,117.333,149.333z M128,85.333h42.667V128H128V85.333z"
				/>
			<path d="M330.667,149.333h64c5.888,0,10.667-4.779,10.667-10.667v-64c0-5.888-4.779-10.667-10.667-10.667h-64
				C324.779,64,320,68.779,320,74.667v64C320,144.555,324.779,149.333,330.667,149.333z M341.333,85.333H384V128h-42.667V85.333z"/>
			<path d="M224,149.333h64c5.888,0,10.667-4.779,10.667-10.667v-64C298.667,68.779,293.888,64,288,64h-64
				c-5.888,0-10.667,4.779-10.667,10.667v64C213.333,144.555,218.112,149.333,224,149.333z M234.667,85.333h42.667V128h-42.667
				V85.333z"/>
			<path d="M117.333,256h64c5.888,0,10.667-4.779,10.667-10.667v-64c0-5.888-4.779-10.667-10.667-10.667h-64
				c-5.888,0-10.667,4.779-10.667,10.667v64C106.667,251.221,111.445,256,117.333,256z M128,192h42.667v42.667H128V192z"/>
			<path d="M330.667,256h64c5.888,0,10.667-4.779,10.667-10.667v-64c0-5.888-4.779-10.667-10.667-10.667h-64
				c-5.888,0-10.667,4.779-10.667,10.667v64C320,251.221,324.779,256,330.667,256z M341.333,192H384v42.667h-42.667V192z"/>
			<path d="M224,256h64c5.888,0,10.667-4.779,10.667-10.667v-64c0-5.888-4.779-10.667-10.667-10.667h-64
				c-5.888,0-10.667,4.779-10.667,10.667v64C213.333,251.221,218.112,256,224,256z M234.667,192h42.667v42.667h-42.667V192z"/>
			<path d="M117.333,362.667h64c5.888,0,10.667-4.779,10.667-10.667v-64c0-5.888-4.779-10.667-10.667-10.667h-64
				c-5.888,0-10.667,4.779-10.667,10.667v64C106.667,357.888,111.445,362.667,117.333,362.667z M128,298.667h42.667v42.667H128
				V298.667z"/>
			<path d="M330.667,362.667h64c5.888,0,10.667-4.779,10.667-10.667v-64c0-5.888-4.779-10.667-10.667-10.667h-64
				c-5.888,0-10.667,4.779-10.667,10.667v64C320,357.888,324.779,362.667,330.667,362.667z M341.333,298.667H384v42.667h-42.667
				V298.667z"/>
			<path d="M224,362.667h64c5.888,0,10.667-4.779,10.667-10.667v-64c0-5.888-4.779-10.667-10.667-10.667h-64
				c-5.888,0-10.667,4.779-10.667,10.667v64C213.333,357.888,218.112,362.667,224,362.667z M234.667,298.667h42.667v42.667h-42.667
				V298.667z"/>
		</g>
	</g>
</g>
<g>
</g>
<g>
</g>
<g>
</g>
<g>
</g>
<g>
</g>
<g>
</g>
<g>
</g>
<g>
</g>
<g>
</g>
<g>
</g>
<g>
</g>
<g>
</g>
<g>
</g>
<g>
</g>
<g>
</g>
</svg>
