<svg id="Capa_1" data-name="Capa 1" xmlns="http://www.w3.org/2000/svg" viewBox="0 0 816.64 1397.62"><defs><style>.cls-1{fill:#91c2f9;}.cls-2{fill:#f76363;}.cls-3{fill:#ffa6a6;}.cls-4{fill:#ffd8d8;}.cls-5{fill:#64c37d;}.cls-6{fill:#ffa600;stroke:#000;}.cls-6,.cls-7,.cls-8,.cls-9{stroke-miterlimit:10;}.cls-6,.cls-7{stroke-width:11px;}.cls-7{fill:#ffdb2d;}.cls-7,.cls-9{stroke:#020201;}.cls-8{fill:#fff;stroke:#010202;stroke-width:14px;}.cls-9{fill:none;stroke-width:18px;}</style></defs><title>buildingbackground</title><path class="cls-1" d="M816.33,584.3,0,1047.5V0L816.43.06Z"/><path class="cls-2" d="M154.41,893.53v494.93H325.08V893.53Z"/><path class="cls-3" d="M325.08,995.93v392.53H444.54v-358.4Z"/><path class="cls-4" d="M444.54,1081.26v307.2h68.27V1115.39Z"/><ellipse class="cls-5" cx="572.54" cy="1294.59" rx="25.6" ry="34.13"/><path d="M581.08,1379.93v-44.19a42,42,0,0,0,25.6-41.15c0-23.52-15.31-42.66-34.14-42.66s-34.13,19.14-34.13,42.66a42,42,0,0,0,25.6,41.15v44.19H521.34V1115.39a8.54,8.54,0,0,0-4.72-7.64L453.08,1076v-45.92a8.55,8.55,0,0,0-6.19-8.21L333.61,989.48v-96a8.53,8.53,0,0,0-8.53-8.54H154.41a8.53,8.53,0,0,0-8.53,8.54v486.4H111.74V1397h512v-17.06Zm-25.6-85.34c0-13.87,7.81-25.6,17.06-25.6s17.07,11.73,17.07,25.6a29.91,29.91,0,0,1-8.53,21.93v-13.39H564v13.39A29.79,29.79,0,0,1,555.48,1294.59Zm-392.54,68.27h76.8v-17.07h-76.8v-34.13h76.8v-17.07h-76.8v-34.13h76.8v-17.07h-76.8v-34.13h76.8v-17.07h-76.8v-34.13h76.8V1141h-76.8v-34.13h76.8v-17.07h-76.8v-34.13h76.8v-17.07h-76.8v-34.13h76.8V987.39h-76.8V953.26h76.8V936.19h-76.8V902.06h153.6v477.87H162.94Zm170.67,0h59.73v-17.07H333.61v-34.13h59.73v-17.07H333.61v-34.13h59.73v-17.07H333.61v-34.13h59.73v-17.07H333.61v-34.13h59.73V1141H333.61v-34.13h59.73v-17.07H333.61v-34.13h59.73v-17.07H333.61v-31.35L436,1036.49v343.44H333.61Zm119.47,17.07v-17.07h25.6v-17.07h-25.6v-34.13h25.6v-17.07h-25.6v-34.13h25.6v-17.07h-25.6v-34.13h25.6v-17.07h-25.6v-34.13h25.6V1141h-25.6v-45.92l51.2,25.6v259.26Z"/><path class="cls-6" d="M802.72,183.76l-32-28.25L801.59,126a4.37,4.37,0,0,0-1.82-7.37l-41.12-11.86L773.85,67a4.36,4.36,0,0,0-.7-4.32A4.44,4.44,0,0,0,769,61.13L726.77,68l-3.44-42.43a4.39,4.39,0,0,0-2.5-3.61,4.45,4.45,0,0,0-4.39.35L681.2,46.44,659.79,9.57a4.43,4.43,0,0,0-7.63,0L627.59,51.89,585.08,27.36a4.4,4.4,0,0,0-6.61,3.77l-.1,42.57L535.7,70.19a4.38,4.38,0,0,0-4.35,6.23l18.27,38.5-40.06,15a4.37,4.37,0,0,0-1.24,7.48l33.11,27-29.71,30.65a4.37,4.37,0,0,0,2.1,7.29l41.55,10.26L541.75,253a4.35,4.35,0,0,0,.88,4.28,4.4,4.4,0,0,0,4.17,1.4l42-8.45,5.1,42.27a4.41,4.41,0,0,0,7,3l34.27-25.52L658,304.75a4.41,4.41,0,0,0,3.72,2h.17a4.42,4.42,0,0,0,3.73-2.34L685.54,268l36.16,22.79a4.41,4.41,0,0,0,4.4.18,4.36,4.36,0,0,0,2.36-3.69l1.77-42.54,42.5,5.17a4.4,4.4,0,0,0,4-1.71,4.35,4.35,0,0,0,.54-4.34l-16.75-39.18,40.62-13.45a4.4,4.4,0,0,0,2.92-3.28A4.34,4.34,0,0,0,802.72,183.76Z"/><ellipse class="cls-7" cx="654.49" cy="156.32" rx="90.68" ry="90.61"/><path class="cls-8" d="M400.6,552.12a87.7,87.7,0,0,0-17.4,1.74,71.72,71.72,0,0,0-100.46-51,95.75,95.75,0,0,0-180,65.35,79.82,79.82,0,0,0,2.4,159.6H400.6a87.85,87.85,0,0,0,0-175.69Z"/><path class="cls-8" d="M679.16,649.76a87.7,87.7,0,0,0-17.4,1.74,71.73,71.73,0,0,0-100.47-51,95.75,95.75,0,1,0-180,65.35,79.81,79.81,0,0,0,2.4,159.59H679.16a87.84,87.84,0,0,0,0-175.68Z"/><line class="cls-9" x1="0.29" y1="1388.62" x2="816.64" y2="1388.62"/></svg>